<svg width="40" height="40" viewBox="0 0 40 40" fill="none" xmlns="http://www.w3.org/2000/svg">
<path d="M19.9998 29.1666C20.9165 29.1666 21.6665 28.4166 21.6665 27.4999V21.6666H27.4998C28.4165 21.6666 29.1665 20.9166 29.1665 19.9999C29.1665 19.0833 28.4165 18.3333 27.4998 18.3333H21.6665V12.4999C21.6665 11.5833 20.9165 10.8333 19.9998 10.8333C19.0831 10.8333 18.3331 11.5833 18.3331 12.4999V18.3333H12.4998C11.5831 18.3333 10.8331 19.0833 10.8331 19.9999C10.8331 20.9166 11.5831 21.6666 12.4998 21.6666H18.3331V27.4999C18.3331 28.4166 19.0831 29.1666 19.9998 29.1666Z" fill="white"/>
<path d="M35.4415 16.0166L35.3081 15.9499C34.7665 15.6749 34.3331 15.2333 34.0498 14.6916L33.9831 14.5583C33.7165 14.0333 32.9581 14.0333 32.6915 14.5583L32.6248 14.6916C32.3498 15.2333 31.9081 15.6666 31.3665 15.9499L31.2331 16.0166C30.7081 16.2833 30.7081 17.0416 31.2331 17.3083L31.3665 17.3749C31.9081 17.6499 32.3415 18.0916 32.6248 18.6333L32.6915 18.7666C32.9581 19.2916 33.7165 19.2916 33.9831 18.7666L34.0498 18.6333C34.3248 18.0916 34.7665 17.6583 35.3081 17.3749L35.4415 17.3083C35.9665 17.0416 35.9665 16.2833 35.4415 16.0166Z" fill="white"/>
<path d="M23.5415 12.4583L23.8081 12.5916C24.6415 13.0166 25.3081 13.6833 25.7331 14.5166L25.8665 14.7833C26.3248 15.6833 27.2415 16.2416 28.2581 16.2416C29.2748 16.2416 30.1831 15.6833 30.6498 14.7833L30.7831 14.5166C31.2081 13.6833 31.8748 13.0166 32.7081 12.5916L32.9748 12.4583C33.8748 11.9999 34.4331 11.0833 34.4331 10.0666C34.4331 9.04993 33.8748 8.1416 32.9748 7.67494L32.7081 7.5416C31.8748 7.1166 31.2081 6.44993 30.7831 5.6166L30.6498 5.34993C30.1915 4.44993 29.2748 3.8916 28.2665 3.8916C27.2581 3.8916 26.3415 4.44993 25.8748 5.34993L25.7415 5.6166C25.3165 6.44993 24.6498 7.1166 23.8165 7.5416L23.5498 7.67494C22.6498 8.13327 22.0915 9.04993 22.0915 10.0583C22.0915 11.0666 22.6498 11.9833 23.5498 12.4499L23.5415 12.4583ZM24.6748 9.90827L24.9415 9.77493C26.2498 9.10827 27.2915 8.0666 27.9581 6.75827L28.0915 6.4916C28.0915 6.4916 28.1415 6.3916 28.2498 6.3916C28.3581 6.3916 28.3998 6.45827 28.4081 6.4916L28.5415 6.75827C29.2081 8.0666 30.2498 9.10827 31.5581 9.77493L31.8248 9.90827C31.8248 9.90827 31.9248 9.95827 31.9248 10.0666C31.9248 10.1749 31.8498 10.2166 31.8248 10.2249L31.5581 10.3583C30.2498 11.0249 29.2081 12.0666 28.5415 13.3749L28.4081 13.6416C28.4081 13.6416 28.3581 13.7416 28.2498 13.7416C28.1415 13.7416 28.0998 13.6666 28.0915 13.6416L27.9581 13.3749C27.2915 12.0666 26.2498 11.0249 24.9415 10.3583L24.6748 10.2249C24.6748 10.2249 24.5748 10.1749 24.5748 10.0666C24.5748 9.95827 24.6498 9.9166 24.6748 9.90827Z" fill="white"/>
<path d="M33.3831 20.4249C32.6998 20.3416 32.0748 20.8249 31.9915 21.5083C31.2415 27.5333 26.0831 32.0833 19.9998 32.0833C13.3331 32.0833 7.91647 26.6666 7.91647 19.9999C7.91647 13.3333 13.3331 7.9166 19.9998 7.9166C20.2498 7.9166 20.5081 7.9166 20.7581 7.9416C21.4581 7.98327 22.0415 7.45827 22.0831 6.77494C22.1248 6.08327 21.5998 5.4916 20.9165 5.44993C20.6165 5.43327 20.3081 5.42494 20.0081 5.42494C11.9665 5.42494 5.4248 11.9666 5.4248 20.0083C5.4248 28.0499 11.9665 34.5916 20.0081 34.5916C27.3498 34.5916 33.5748 29.1083 34.4748 21.8333C34.5581 21.1499 34.0748 20.5249 33.3915 20.4416L33.3831 20.4249Z" fill="white"/>
</svg>
