<svg width="240" height="240" viewBox="0 0 240 240" fill="none" xmlns="http://www.w3.org/2000/svg">
<path d="M120 115C113.37 115 107.011 112.366 102.322 107.678C97.6339 102.989 95 96.6304 95 90C95 83.3696 97.6339 77.0107 102.322 72.3223C107.011 67.6339 113.37 65 120 65C126.63 65 132.989 67.6339 137.678 72.3223C142.366 77.0107 145 83.3696 145 90C145 93.283 144.353 96.5339 143.097 99.5671C141.841 102.6 139.999 105.356 137.678 107.678C135.356 109.999 132.6 111.841 129.567 113.097C126.534 114.353 123.283 115 120 115ZM120 20C101.435 20 83.6301 27.375 70.5025 40.5025C57.375 53.6301 50 71.4348 50 90C50 142.5 120 220 120 220C120 220 190 142.5 190 90C190 71.4348 182.625 53.6301 169.497 40.5025C156.37 27.375 138.565 20 120 20Z" fill="black"/>
</svg>
