<svg width="240" height="240" viewBox="0 0 240 240" fill="none" xmlns="http://www.w3.org/2000/svg">
<path d="M120 90C117.348 90 114.804 91.0536 112.929 92.9289C111.054 94.8043 110 97.3478 110 100V130C110 132.652 111.054 135.196 112.929 137.071C114.804 138.946 117.348 140 120 140C122.652 140 125.196 138.946 127.071 137.071C128.946 135.196 130 132.652 130 130V100C130 97.3478 128.946 94.8043 127.071 92.9289C125.196 91.0536 122.652 90 120 90ZM190 20H50C42.0435 20 34.4129 23.1607 28.7868 28.7868C23.1607 34.4129 20 42.0435 20 50V150C20 157.956 23.1607 165.587 28.7868 171.213C34.4129 176.839 42.0435 180 50 180H165.9L202.9 217.1C203.834 218.027 204.943 218.76 206.161 219.258C207.379 219.755 208.684 220.008 210 220C211.312 220.034 212.613 219.76 213.8 219.2C215.626 218.45 217.189 217.176 218.293 215.539C219.396 213.901 219.99 211.974 220 210V50C220 42.0435 216.839 34.4129 211.213 28.7868C205.587 23.1607 197.956 20 190 20ZM200 185.9L177.1 162.9C176.166 161.973 175.057 161.24 173.839 160.742C172.621 160.245 171.316 159.992 170 160H50C47.3478 160 44.8043 158.946 42.9289 157.071C41.0536 155.196 40 152.652 40 150V50C40 47.3478 41.0536 44.8043 42.9289 42.9289C44.8043 41.0536 47.3478 40 50 40H190C192.652 40 195.196 41.0536 197.071 42.9289C198.946 44.8043 200 47.3478 200 50V185.9ZM120 60C118.022 60 116.089 60.5865 114.444 61.6853C112.8 62.7841 111.518 64.3459 110.761 66.1732C110.004 68.0004 109.806 70.0111 110.192 71.9509C110.578 73.8907 111.53 75.6725 112.929 77.0711C114.327 78.4696 116.109 79.422 118.049 79.8079C119.989 80.1937 122 79.9957 123.827 79.2388C125.654 78.4819 127.216 77.2002 128.315 75.5557C129.414 73.9112 130 71.9778 130 70C130 67.3478 128.946 64.8043 127.071 62.9289C125.196 61.0536 122.652 60 120 60Z" fill="black"/>
</svg>
