<svg width="230" height="172" viewBox="0 0 230 172" fill="none" xmlns="http://www.w3.org/2000/svg">
<path d="M130.333 58.2304H107.333V50.6459C107.333 44.611 104.91 38.8237 100.597 34.5564C96.2833 30.2892 90.4332 27.8919 84.3333 27.8919H69C62.9001 27.8919 57.05 30.2892 52.7364 34.5564C48.4231 38.8237 46 44.611 46 50.6459V58.2304H23C16.9 58.2304 11.0499 60.6277 6.73654 64.8949C2.4232 69.1621 0 74.9497 0 80.9844V149.246C0 155.281 2.4232 161.068 6.73654 165.335C11.0499 169.603 16.9 172 23 172H130.333C136.433 172 142.283 169.603 146.597 165.335C150.91 161.068 153.333 155.281 153.333 149.246V80.9844C153.333 74.9497 150.91 69.1621 146.597 64.8949C142.283 60.6277 136.433 58.2304 130.333 58.2304ZM61.3333 50.6459C61.3333 48.6342 62.1411 46.705 63.5787 45.2827C65.0166 43.8602 66.9667 43.0611 69 43.0611H84.3333C86.3666 43.0611 88.3167 43.8602 89.7544 45.2827C91.1922 46.705 92 48.6342 92 50.6459V58.2304H61.3333V50.6459ZM138 149.246C138 151.258 137.192 153.187 135.755 154.609C134.317 156.032 132.367 156.831 130.333 156.831H23C20.9667 156.831 19.0166 156.032 17.5789 154.609C16.1411 153.187 15.3333 151.258 15.3333 149.246V110.944H38.3333V118.908C38.3333 120.919 39.1411 122.848 40.5787 124.271C42.0166 125.693 43.9667 126.492 46 126.492C48.0333 126.492 49.9834 125.693 51.4213 124.271C52.8589 122.848 53.6667 120.919 53.6667 118.908V110.944H99.6667V118.908C99.6667 120.919 100.474 122.848 101.912 124.271C103.35 125.693 105.3 126.492 107.333 126.492C109.367 126.492 111.317 125.693 112.755 124.271C114.192 122.848 115 120.919 115 118.908V110.944H138V149.246ZM138 96.1536H15.3333V80.9844C15.3333 78.9729 16.1411 77.0437 17.5789 75.6212C19.0166 74.1987 20.9667 73.3996 23 73.3996H130.333C132.367 73.3996 134.317 74.1987 135.755 75.6212C137.192 77.0437 138 78.9729 138 80.9844V96.1536Z" fill="black"/>
<path d="M161.952 27.1016L162.51 27.3805C164.764 28.5427 166.599 30.3789 167.761 32.6335L168.039 33.1913C169.154 35.3994 172.314 35.3994 173.452 33.1913L173.731 32.6335C174.893 30.3789 176.728 28.5427 178.982 27.3805L179.539 27.1016C181.746 25.9859 181.746 22.8249 179.539 21.6859L178.982 21.407C176.728 20.2449 174.893 18.4086 173.731 16.154L173.452 15.5962C172.337 13.3881 169.178 13.3881 168.039 15.5962L167.761 16.154C166.599 18.4086 164.764 20.2449 162.51 21.407L161.952 21.6859C159.745 22.8016 159.745 25.9627 161.952 27.1016Z" fill="black"/>
<path d="M166.343 48.8805C168.62 47.7184 168.62 44.4876 166.343 43.3254L162.951 41.5822C159.931 40.0249 157.469 37.5611 155.912 34.5395L154.17 31.1459C153.008 28.8681 149.779 28.8681 148.617 31.1459L146.875 34.5395C145.318 37.5611 142.856 40.0249 139.835 41.5822L136.443 43.3254C134.167 44.4876 134.167 47.7184 136.443 48.8805L139.835 50.6238C142.856 52.1811 145.318 54.6449 146.875 57.6665L148.617 61.06C149.779 63.3378 153.008 63.3378 154.17 61.06L155.912 57.6665C157.469 54.6449 159.931 52.1811 162.951 50.6238L166.343 48.8805Z" fill="black"/>
<path d="M209.927 62.78L206.489 61.0135C202.33 58.8984 199.008 55.5746 196.894 51.4141L195.128 47.9741C193.572 44.9059 190.459 43 187.02 43C183.582 43 180.469 44.9059 178.912 47.9741L177.146 51.4141C175.032 55.5746 171.71 58.8984 167.551 61.0135L164.113 62.78C161.046 64.3373 159.141 67.4519 159.141 70.8919C159.141 74.3319 161.046 77.4465 164.113 79.0038L167.551 80.7703C171.71 82.8854 175.032 86.2092 177.146 90.3697L178.912 93.8097C180.469 96.8778 183.582 98.7838 187.02 98.7838C190.459 98.7838 193.572 96.8778 195.128 93.8097L196.894 90.3697C199.008 86.2092 202.33 82.8854 206.489 80.7703L209.927 79.0038C212.994 77.4465 214.899 74.3319 214.899 70.8919C214.899 67.4519 212.994 64.3373 209.927 62.78ZM206.768 72.7978L203.329 74.5643C197.846 77.3535 193.479 81.7232 190.691 87.2087L188.925 90.6486C188.391 91.6946 187.415 91.8108 187.02 91.8108C186.625 91.8108 185.649 91.6946 185.115 90.6486L183.349 87.2087C180.562 81.7232 176.194 77.3535 170.711 74.5643L167.273 72.7978C166.227 72.2632 166.111 71.287 166.111 70.8919C166.111 70.4968 166.227 69.5205 167.273 68.9859L170.711 67.2195C176.194 64.4303 180.562 60.0605 183.349 54.5751L185.115 51.1351C185.649 50.0892 186.625 49.973 187.02 49.973C187.415 49.973 188.391 50.0892 188.925 51.1351L190.691 54.5751C193.479 60.0605 197.846 64.4303 203.329 67.2195L206.768 68.9859C207.813 69.5205 207.929 70.4968 207.929 70.8919C207.929 71.287 207.813 72.2632 206.768 72.7978Z" fill="black"/>
</svg>
